<mxfile host="app.diagrams.net" agent="Mozilla/5.0 (Windows NT 10.0; Win64; x64) AppleWebKit/537.36 (KHTML, like Gecko) Chrome/129.0.0.0 Safari/537.36" version="24.7.17" pages="3">
  <diagram name="Page-1" id="ykmo5NPQozlUivlo2oax">
    <mxGraphModel dx="1354" dy="720" grid="1" gridSize="10" guides="1" tooltips="1" connect="1" arrows="1" fold="1" page="1" pageScale="1" pageWidth="850" pageHeight="1100" math="0" shadow="0">
      <root>
        <mxCell id="0" />
        <mxCell id="1" parent="0" />
        <mxCell id="U1ktOcJkj3vDD1YHl3Xk-1" value="&lt;b&gt;&lt;u&gt;START&lt;/u&gt;&lt;/b&gt;" style="rounded=1;whiteSpace=wrap;html=1;" vertex="1" parent="1">
          <mxGeometry x="350" y="40" width="120" height="60" as="geometry" />
        </mxCell>
        <mxCell id="U1ktOcJkj3vDD1YHl3Xk-2" value="" style="endArrow=classic;html=1;rounded=0;exitX=0.5;exitY=1;exitDx=0;exitDy=0;" edge="1" parent="1" source="U1ktOcJkj3vDD1YHl3Xk-1">
          <mxGeometry width="50" height="50" relative="1" as="geometry">
            <mxPoint x="410" y="110" as="sourcePoint" />
            <mxPoint x="410" y="140" as="targetPoint" />
          </mxGeometry>
        </mxCell>
        <mxCell id="U1ktOcJkj3vDD1YHl3Xk-3" value="Nilai awal pada seven segmen diatur menjadi 0" style="shape=parallelogram;perimeter=parallelogramPerimeter;whiteSpace=wrap;html=1;fixedSize=1;" vertex="1" parent="1">
          <mxGeometry x="330" y="140" width="160" height="60" as="geometry" />
        </mxCell>
        <mxCell id="U1ktOcJkj3vDD1YHl3Xk-5" value="" style="endArrow=classic;html=1;rounded=0;exitX=0.5;exitY=1;exitDx=0;exitDy=0;" edge="1" parent="1" source="U1ktOcJkj3vDD1YHl3Xk-3">
          <mxGeometry width="50" height="50" relative="1" as="geometry">
            <mxPoint x="350" y="270" as="sourcePoint" />
            <mxPoint x="410" y="240" as="targetPoint" />
          </mxGeometry>
        </mxCell>
        <mxCell id="U1ktOcJkj3vDD1YHl3Xk-11" value="Angka pada seven segment ditampilkan sesuai dengan nilai yang ada" style="strokeWidth=2;html=1;shape=mxgraph.flowchart.display;whiteSpace=wrap;" vertex="1" parent="1">
          <mxGeometry x="337.5" y="240" width="145" height="80" as="geometry" />
        </mxCell>
        <mxCell id="U1ktOcJkj3vDD1YHl3Xk-13" value="Nilai pada seven segment ditambah 1" style="rounded=0;whiteSpace=wrap;html=1;" vertex="1" parent="1">
          <mxGeometry x="350" y="360" width="120" height="60" as="geometry" />
        </mxCell>
        <mxCell id="JYOPsMD4bks9aD5tpkaF-4" value="" style="endArrow=classic;html=1;rounded=0;exitX=0.5;exitY=1;exitDx=0;exitDy=0;exitPerimeter=0;entryX=0.5;entryY=0;entryDx=0;entryDy=0;" edge="1" parent="1" source="U1ktOcJkj3vDD1YHl3Xk-11" target="U1ktOcJkj3vDD1YHl3Xk-13">
          <mxGeometry width="50" height="50" relative="1" as="geometry">
            <mxPoint x="370" y="300" as="sourcePoint" />
            <mxPoint x="420" y="250" as="targetPoint" />
          </mxGeometry>
        </mxCell>
        <mxCell id="JYOPsMD4bks9aD5tpkaF-5" value="" style="endArrow=classic;html=1;rounded=0;exitX=0.5;exitY=1;exitDx=0;exitDy=0;" edge="1" parent="1" source="U1ktOcJkj3vDD1YHl3Xk-13">
          <mxGeometry width="50" height="50" relative="1" as="geometry">
            <mxPoint x="390" y="470" as="sourcePoint" />
            <mxPoint x="410" y="460" as="targetPoint" />
          </mxGeometry>
        </mxCell>
        <mxCell id="JYOPsMD4bks9aD5tpkaF-6" value="Apakah nilia &amp;gt;9?" style="strokeWidth=2;html=1;shape=mxgraph.flowchart.decision;whiteSpace=wrap;" vertex="1" parent="1">
          <mxGeometry x="360" y="460" width="100" height="100" as="geometry" />
        </mxCell>
        <mxCell id="JYOPsMD4bks9aD5tpkaF-7" value="" style="endArrow=classic;html=1;rounded=0;exitX=0.5;exitY=1;exitDx=0;exitDy=0;exitPerimeter=0;" edge="1" parent="1" source="JYOPsMD4bks9aD5tpkaF-6">
          <mxGeometry width="50" height="50" relative="1" as="geometry">
            <mxPoint x="370" y="520" as="sourcePoint" />
            <mxPoint x="410" y="600" as="targetPoint" />
          </mxGeometry>
        </mxCell>
        <mxCell id="JYOPsMD4bks9aD5tpkaF-8" value="&lt;b&gt;&lt;u&gt;END&lt;/u&gt;&lt;/b&gt;" style="rounded=1;whiteSpace=wrap;html=1;" vertex="1" parent="1">
          <mxGeometry x="350" y="600" width="120" height="60" as="geometry" />
        </mxCell>
      </root>
    </mxGraphModel>
  </diagram>
  <diagram id="jLuY2P5EQQzeON4wAsW0" name="Page-2">
    <mxGraphModel dx="880" dy="468" grid="1" gridSize="10" guides="1" tooltips="1" connect="1" arrows="1" fold="1" page="1" pageScale="1" pageWidth="850" pageHeight="1100" math="0" shadow="0">
      <root>
        <mxCell id="0" />
        <mxCell id="1" parent="0" />
        <mxCell id="xpsczcnlChTebPi3Vnb2-1" value="&lt;b&gt;&lt;u&gt;START&lt;/u&gt;&lt;/b&gt;" style="rounded=1;whiteSpace=wrap;html=1;" vertex="1" parent="1">
          <mxGeometry x="380" y="10" width="120" height="60" as="geometry" />
        </mxCell>
        <mxCell id="xpsczcnlChTebPi3Vnb2-2" value="Cetak tombol ya/tidak" style="rhombus;whiteSpace=wrap;html=1;" vertex="1" parent="1">
          <mxGeometry x="390" y="110" width="100" height="100" as="geometry" />
        </mxCell>
        <mxCell id="xpsczcnlChTebPi3Vnb2-3" value="Set status meenjadi sedang melakukkan count down" style="shape=parallelogram;html=1;strokeWidth=2;perimeter=parallelogramPerimeter;whiteSpace=wrap;rounded=1;arcSize=12;size=0.23;" vertex="1" parent="1">
          <mxGeometry x="332.5" y="250" width="215" height="70" as="geometry" />
        </mxCell>
        <mxCell id="xpsczcnlChTebPi3Vnb2-5" value="Angka pada seven segment ditampilkan sesuai dengan nilai yang ada" style="strokeWidth=2;html=1;shape=mxgraph.flowchart.display;whiteSpace=wrap;" vertex="1" parent="1">
          <mxGeometry x="350" y="360" width="180" height="110" as="geometry" />
        </mxCell>
        <mxCell id="xpsczcnlChTebPi3Vnb2-6" value="Nilai pada seven segment dikurangi 1" style="rounded=0;whiteSpace=wrap;html=1;" vertex="1" parent="1">
          <mxGeometry x="365" y="510" width="150" height="80" as="geometry" />
        </mxCell>
        <mxCell id="xpsczcnlChTebPi3Vnb2-7" value="Apakah nilai &amp;lt;=0?" style="strokeWidth=2;html=1;shape=mxgraph.flowchart.decision;whiteSpace=wrap;" vertex="1" parent="1">
          <mxGeometry x="382.5" y="630" width="117.5" height="110" as="geometry" />
        </mxCell>
        <mxCell id="xpsczcnlChTebPi3Vnb2-9" value="Turn off the light" style="shape=parallelogram;perimeter=parallelogramPerimeter;whiteSpace=wrap;html=1;fixedSize=1;" vertex="1" parent="1">
          <mxGeometry x="371.25" y="780" width="140" height="70" as="geometry" />
        </mxCell>
        <mxCell id="xpsczcnlChTebPi3Vnb2-10" value="&lt;b&gt;&lt;u&gt;END&lt;/u&gt;&lt;/b&gt;" style="rounded=1;whiteSpace=wrap;html=1;" vertex="1" parent="1">
          <mxGeometry x="371.25" y="890" width="140" height="70" as="geometry" />
        </mxCell>
        <mxCell id="xpsczcnlChTebPi3Vnb2-11" value="" style="endArrow=classic;html=1;rounded=0;exitX=0.5;exitY=1;exitDx=0;exitDy=0;" edge="1" parent="1" source="xpsczcnlChTebPi3Vnb2-1">
          <mxGeometry width="50" height="50" relative="1" as="geometry">
            <mxPoint x="430" y="220" as="sourcePoint" />
            <mxPoint x="440" y="110" as="targetPoint" />
          </mxGeometry>
        </mxCell>
        <mxCell id="xpsczcnlChTebPi3Vnb2-12" value="" style="endArrow=classic;html=1;rounded=0;" edge="1" parent="1">
          <mxGeometry width="50" height="50" relative="1" as="geometry">
            <mxPoint x="440" y="210" as="sourcePoint" />
            <mxPoint x="440" y="250" as="targetPoint" />
          </mxGeometry>
        </mxCell>
        <mxCell id="xpsczcnlChTebPi3Vnb2-14" value="" style="endArrow=classic;html=1;rounded=0;exitX=0.5;exitY=1;exitDx=0;exitDy=0;" edge="1" parent="1" source="xpsczcnlChTebPi3Vnb2-3">
          <mxGeometry width="50" height="50" relative="1" as="geometry">
            <mxPoint x="430" y="220" as="sourcePoint" />
            <mxPoint x="440" y="360" as="targetPoint" />
          </mxGeometry>
        </mxCell>
        <mxCell id="xpsczcnlChTebPi3Vnb2-16" value="" style="endArrow=classic;html=1;rounded=0;exitX=0.5;exitY=1;exitDx=0;exitDy=0;exitPerimeter=0;" edge="1" parent="1" source="xpsczcnlChTebPi3Vnb2-5">
          <mxGeometry width="50" height="50" relative="1" as="geometry">
            <mxPoint x="430" y="520" as="sourcePoint" />
            <mxPoint x="440" y="510" as="targetPoint" />
          </mxGeometry>
        </mxCell>
        <mxCell id="xpsczcnlChTebPi3Vnb2-17" value="" style="endArrow=classic;html=1;rounded=0;exitX=0.5;exitY=1;exitDx=0;exitDy=0;" edge="1" parent="1" source="xpsczcnlChTebPi3Vnb2-6">
          <mxGeometry width="50" height="50" relative="1" as="geometry">
            <mxPoint x="430" y="520" as="sourcePoint" />
            <mxPoint x="440" y="630" as="targetPoint" />
          </mxGeometry>
        </mxCell>
        <mxCell id="xpsczcnlChTebPi3Vnb2-18" value="" style="endArrow=classic;html=1;rounded=0;exitX=0.5;exitY=1;exitDx=0;exitDy=0;exitPerimeter=0;" edge="1" parent="1" source="xpsczcnlChTebPi3Vnb2-7">
          <mxGeometry width="50" height="50" relative="1" as="geometry">
            <mxPoint x="430" y="720" as="sourcePoint" />
            <mxPoint x="441" y="780" as="targetPoint" />
          </mxGeometry>
        </mxCell>
        <mxCell id="xpsczcnlChTebPi3Vnb2-19" value="" style="endArrow=classic;html=1;rounded=0;exitX=0.5;exitY=1;exitDx=0;exitDy=0;" edge="1" parent="1" source="xpsczcnlChTebPi3Vnb2-9">
          <mxGeometry width="50" height="50" relative="1" as="geometry">
            <mxPoint x="430" y="810" as="sourcePoint" />
            <mxPoint x="441" y="890" as="targetPoint" />
          </mxGeometry>
        </mxCell>
      </root>
    </mxGraphModel>
  </diagram>
  <diagram id="wdq2957IPpTIfUmRHlXr" name="Page-3">
    <mxGraphModel dx="880" dy="468" grid="1" gridSize="10" guides="1" tooltips="1" connect="1" arrows="1" fold="1" page="1" pageScale="1" pageWidth="850" pageHeight="1100" math="0" shadow="0">
      <root>
        <mxCell id="0" />
        <mxCell id="1" parent="0" />
        <mxCell id="8WtLdUbRKE0vJez25-9B-1" value="&lt;b&gt;&lt;u&gt;START&lt;/u&gt;&lt;/b&gt;" style="rounded=1;whiteSpace=wrap;html=1;" vertex="1" parent="1">
          <mxGeometry x="365" y="40" width="120" height="60" as="geometry" />
        </mxCell>
        <mxCell id="8WtLdUbRKE0vJez25-9B-2" value="Nilai awal pada seven segment diatur menjadi 20." style="shape=parallelogram;perimeter=parallelogramPerimeter;whiteSpace=wrap;html=1;fixedSize=1;" vertex="1" parent="1">
          <mxGeometry x="345" y="140" width="160" height="70" as="geometry" />
        </mxCell>
        <mxCell id="8WtLdUbRKE0vJez25-9B-3" value="Cetak tombol ya/tidak" style="rhombus;whiteSpace=wrap;html=1;" vertex="1" parent="1">
          <mxGeometry x="370" y="250" width="110" height="110" as="geometry" />
        </mxCell>
        <mxCell id="8WtLdUbRKE0vJez25-9B-4" value="Set status menjadi sedang melakukan count down" style="shape=parallelogram;html=1;strokeWidth=2;perimeter=parallelogramPerimeter;whiteSpace=wrap;rounded=1;arcSize=12;size=0.23;" vertex="1" parent="1">
          <mxGeometry x="330" y="400" width="190" height="70" as="geometry" />
        </mxCell>
        <mxCell id="8WtLdUbRKE0vJez25-9B-5" value="Angka pada seven segment ditampilkan sesuai dengan nilai yang ada" style="strokeWidth=2;html=1;shape=mxgraph.flowchart.display;whiteSpace=wrap;" vertex="1" parent="1">
          <mxGeometry x="350" y="510" width="150" height="100" as="geometry" />
        </mxCell>
        <mxCell id="8WtLdUbRKE0vJez25-9B-6" value="Nilai pada seven segment dikurang 1" style="rounded=0;whiteSpace=wrap;html=1;" vertex="1" parent="1">
          <mxGeometry x="348" y="660" width="155" height="80" as="geometry" />
        </mxCell>
        <mxCell id="8WtLdUbRKE0vJez25-9B-7" value="&lt;b&gt;&lt;u&gt;END&lt;/u&gt;&lt;/b&gt;" style="rounded=1;whiteSpace=wrap;html=1;" vertex="1" parent="1">
          <mxGeometry x="365" y="950" width="120" height="60" as="geometry" />
        </mxCell>
        <mxCell id="8WtLdUbRKE0vJez25-9B-8" value="Apakah nilai &amp;lt;=0?" style="rhombus;whiteSpace=wrap;html=1;" vertex="1" parent="1">
          <mxGeometry x="370.5" y="790" width="110" height="110" as="geometry" />
        </mxCell>
        <mxCell id="8WtLdUbRKE0vJez25-9B-9" value="" style="endArrow=classic;html=1;rounded=0;exitX=0.5;exitY=1;exitDx=0;exitDy=0;" edge="1" parent="1" source="8WtLdUbRKE0vJez25-9B-1">
          <mxGeometry width="50" height="50" relative="1" as="geometry">
            <mxPoint x="430" y="170" as="sourcePoint" />
            <mxPoint x="425" y="140" as="targetPoint" />
          </mxGeometry>
        </mxCell>
        <mxCell id="8WtLdUbRKE0vJez25-9B-10" value="" style="endArrow=classic;html=1;rounded=0;exitX=0.5;exitY=1;exitDx=0;exitDy=0;" edge="1" parent="1" source="8WtLdUbRKE0vJez25-9B-2">
          <mxGeometry width="50" height="50" relative="1" as="geometry">
            <mxPoint x="430" y="170" as="sourcePoint" />
            <mxPoint x="425" y="250" as="targetPoint" />
          </mxGeometry>
        </mxCell>
        <mxCell id="8WtLdUbRKE0vJez25-9B-11" value="" style="endArrow=classic;html=1;rounded=0;exitX=0.5;exitY=1;exitDx=0;exitDy=0;" edge="1" parent="1" source="8WtLdUbRKE0vJez25-9B-3">
          <mxGeometry width="50" height="50" relative="1" as="geometry">
            <mxPoint x="430" y="360" as="sourcePoint" />
            <mxPoint x="425" y="400" as="targetPoint" />
          </mxGeometry>
        </mxCell>
        <mxCell id="8WtLdUbRKE0vJez25-9B-12" value="" style="endArrow=classic;html=1;rounded=0;exitX=0.5;exitY=1;exitDx=0;exitDy=0;" edge="1" parent="1" source="8WtLdUbRKE0vJez25-9B-4">
          <mxGeometry width="50" height="50" relative="1" as="geometry">
            <mxPoint x="430" y="590" as="sourcePoint" />
            <mxPoint x="425" y="510" as="targetPoint" />
          </mxGeometry>
        </mxCell>
        <mxCell id="8WtLdUbRKE0vJez25-9B-13" value="" style="endArrow=classic;html=1;rounded=0;exitX=0.5;exitY=1;exitDx=0;exitDy=0;exitPerimeter=0;" edge="1" parent="1" source="8WtLdUbRKE0vJez25-9B-5">
          <mxGeometry width="50" height="50" relative="1" as="geometry">
            <mxPoint x="430" y="590" as="sourcePoint" />
            <mxPoint x="425" y="660" as="targetPoint" />
          </mxGeometry>
        </mxCell>
        <mxCell id="8WtLdUbRKE0vJez25-9B-14" value="" style="endArrow=classic;html=1;rounded=0;exitX=0.5;exitY=1;exitDx=0;exitDy=0;" edge="1" parent="1" source="8WtLdUbRKE0vJez25-9B-6">
          <mxGeometry width="50" height="50" relative="1" as="geometry">
            <mxPoint x="430" y="750" as="sourcePoint" />
            <mxPoint x="426" y="790" as="targetPoint" />
          </mxGeometry>
        </mxCell>
        <mxCell id="8WtLdUbRKE0vJez25-9B-15" value="" style="endArrow=classic;html=1;rounded=0;exitX=0.5;exitY=1;exitDx=0;exitDy=0;" edge="1" parent="1" source="8WtLdUbRKE0vJez25-9B-8">
          <mxGeometry width="50" height="50" relative="1" as="geometry">
            <mxPoint x="430" y="810" as="sourcePoint" />
            <mxPoint x="426" y="950" as="targetPoint" />
          </mxGeometry>
        </mxCell>
      </root>
    </mxGraphModel>
  </diagram>
</mxfile>
